<svg width="400" height="450" viewBox="0 0 256 292" fill="none" xmlns="http://www.w3.org/2000/svg">
<path d="M70.9426 107.529L18.221 123.74C17.4819 123.906 16.7172 123.925 15.9708 123.795C15.2244 123.666 14.5109 123.39 13.8711 122.984C13.2313 122.579 12.6778 122.051 12.2423 121.431C11.8068 120.811 11.4978 120.111 11.333 119.372L1.13869 73.6476C0.805289 72.1545 1.07855 70.59 1.8984 69.2984C2.71824 68.0067 4.01753 67.0935 5.51056 66.7596L59.6787 57.8457C61.6058 57.5287 63.5812 57.9611 65.1995 59.0544C66.8179 60.1476 67.9566 61.8187 68.3819 63.7248L76.1573 98.5701C76.5731 100.445 76.2674 102.409 75.3011 104.069C74.3348 105.729 72.7787 106.964 70.9426 107.529V107.529Z" stroke="#DADEEB" stroke-width="1.37431" stroke-miterlimit="10" stroke-linecap="round"/>
<path d="M88.6083 211.777C81.465 199.123 68.7546 172.77 65.3713 140.429" stroke="#DADEEB" stroke-width="1.37431" stroke-miterlimit="10" stroke-linecap="round"/>
<path d="M183.886 200.654C186.993 191.453 189.7 180.801 190.109 170.781" stroke="#DADEEB" stroke-width="1.37431" stroke-miterlimit="10" stroke-linecap="round"/>
<path d="M194.141 205.549C194.141 205.549 195.725 190.655 204.931 180.542L215.563 188.75C215.563 188.75 201.227 192.267 194.141 205.549Z" fill="#FFD550"/>
<path d="M217.608 214.563C235.363 215.835 248.737 230.002 247.581 246.12C246.426 262.237 231.169 274.352 213.413 273.079C195.657 271.806 182.284 257.639 183.439 241.522C184.595 225.404 199.852 213.29 217.608 214.563Z" stroke="#DADEEB"/>
<path d="M203.104 139.566C203.104 139.566 209.667 139.971 212.723 136.474C214.286 134.688 218.136 130.915 223.006 128.752C227.876 126.588 222.548 135.336 222.734 136.045C222.978 136.993 231.977 130.847 233.33 132.783C234.683 134.72 236.13 139.975 230.04 145.251C223.95 150.526 204.838 158.127 199.514 157.507C194.19 156.887 196.325 144.562 203.104 139.566Z" fill="#F3ABAA"/>
<path d="M221.871 136.6L218.245 140.024" stroke="#0D0F44" stroke-width="0.916209" stroke-miterlimit="10" stroke-linecap="round"/>
<path d="M66.8099 98.2297C66.8099 98.2297 65.416 95.3124 65.1891 89.9478C64.9785 84.8385 63.7224 75.2358 60.6309 75.2358C59.1682 75.2358 56.0646 76.5284 56.3198 85.6692C56.3198 85.6692 55.631 89.3765 49.2535 82.4764C42.876 75.5762 40.368 76.0178 38.4799 77.4724C35.1331 80.0575 29.6835 86.7024 34.2539 96.3577C38.8243 106.013 54.1683 113.78 54.1683 113.78L66.8099 98.2297Z" fill="#F3ABAA"/>
<path d="M38.6707 79.162C38.6707 79.162 43.4355 84.9358 46.1421 86.4552" stroke="#0D0F44" stroke-width="0.916209" stroke-miterlimit="10" stroke-linecap="round"/>
<path d="M36.6809 82.8127C36.6809 82.8127 41.4417 88.5865 44.1524 90.1059" stroke="#0D0F44" stroke-width="0.916209" stroke-miterlimit="10" stroke-linecap="round"/>
<path d="M34.9346 87.1643C34.9346 87.1643 39.6954 92.93 42.406 94.4575" stroke="#0D0F44" stroke-width="0.916209" stroke-miterlimit="10" stroke-linecap="round"/>
<path d="M34.9346 92.7436C36.4315 94.5413 38.0206 96.2602 39.6954 97.8934" stroke="#0D0F44" stroke-width="0.916209" stroke-miterlimit="10" stroke-linecap="round"/>
<path d="M76.42 234.244L120.73 202.749C122.096 201.778 123.661 201.123 125.311 200.83C126.961 200.537 128.655 200.614 130.272 201.056L199.152 219.803C200.341 220.125 201.424 220.753 202.294 221.625C203.164 222.497 203.789 223.583 204.108 224.772C204.427 225.962 204.428 227.214 204.11 228.404C203.793 229.594 203.169 230.68 202.3 231.553L145.948 288.46C144.075 290.358 141.563 291.492 138.9 291.641C136.238 291.791 133.615 290.946 131.54 289.271L76.0918 244.324C75.3344 243.708 74.7297 242.925 74.3248 242.037C73.9199 241.149 73.7257 240.179 73.7575 239.203C73.7893 238.227 74.0461 237.272 74.5079 236.411C74.9698 235.551 75.6242 234.809 76.42 234.244Z" fill="#0D0F44"/>
<path d="M204.051 218.738L204.35 227.732L199.95 231.48L204.051 218.738Z" fill="#0D0F44"/>
<path d="M73.7581 233.543V240.297L80.5326 243.834L73.7581 233.543Z" fill="#0D0F44"/>
<path d="M76.4207 228.393L120.731 196.894C122.097 195.923 123.661 195.268 125.312 194.975C126.962 194.682 128.656 194.759 130.273 195.201L199.153 213.948C200.342 214.27 201.425 214.899 202.295 215.771C203.165 216.643 203.79 217.728 204.109 218.917C204.428 220.107 204.428 221.359 204.111 222.549C203.794 223.739 203.17 224.825 202.301 225.698L145.949 282.606C144.073 284.5 141.56 285.63 138.897 285.776C136.235 285.922 133.613 285.074 131.541 283.396L76.0926 238.47C75.336 237.853 74.7319 237.071 74.3275 236.183C73.9231 235.295 73.7292 234.325 73.7609 233.35C73.7927 232.375 74.0493 231.42 74.5106 230.56C74.972 229.7 75.6257 228.959 76.4207 228.393Z" fill="#22319E"/>
<path d="M191.32 226.918L171.061 247.367L170.389 244.531C169.356 239.949 166.13 225.395 163.318 210.168L188.666 217.056C189.665 217.325 190.576 217.851 191.307 218.582C192.038 219.313 192.565 220.224 192.833 221.223C193.102 222.221 193.104 223.273 192.838 224.273C192.573 225.272 192.049 226.184 191.32 226.918Z" fill="#DADEEB"/>
<path d="M112.084 258.032L113.368 260.276L85.4311 237.639C84.7961 237.122 84.2892 236.466 83.95 235.721C83.6107 234.975 83.4482 234.162 83.4753 233.344C83.5024 232.525 83.7182 231.725 84.106 231.003C84.4937 230.282 85.0429 229.661 85.7107 229.187L98.7736 219.904C101.774 233.07 106.238 245.859 112.084 258.032Z" fill="#DADEEB"/>
<path d="M142.12 40.9255C142.12 40.9255 154.81 38.7902 157.213 62.2337C159.056 80.2236 160.766 83.0234 161.293 84.7008C161.82 86.3782 173.153 99.1494 169.903 112.472C169.903 112.472 164.846 129.489 149.121 132.346C133.397 135.202 131.541 96.844 131.541 96.844C131.541 96.844 129.402 47.1976 142.12 40.9255Z" fill="#22319E"/>
<path d="M54.3142 200.65C61.9762 200.65 68.1875 194.439 68.1875 186.777C68.1875 179.115 61.9762 172.904 54.3142 172.904C46.6522 172.904 40.4409 179.115 40.4409 186.777C40.4409 194.439 46.6522 200.65 54.3142 200.65Z" fill="#22319E"/>
<path d="M59.2334 186.514L53.8891 193.402C53.7995 193.52 53.6791 193.612 53.541 193.666C53.4029 193.721 53.2525 193.736 53.1062 193.711C52.9599 193.686 52.8232 193.621 52.7112 193.524C52.5992 193.427 52.5161 193.3 52.471 193.159L49.42 183.913C49.3724 183.772 49.3643 183.621 49.3966 183.476C49.4289 183.331 49.5004 183.198 49.6032 183.091C49.7061 182.984 49.8363 182.907 49.9798 182.869C50.1233 182.831 50.2744 182.833 50.4168 182.875L58.808 185.217C58.9396 185.251 59.0605 185.318 59.1596 185.411C59.2587 185.504 59.3329 185.62 59.3753 185.749C59.4176 185.878 59.4268 186.016 59.4021 186.15C59.3773 186.283 59.3193 186.408 59.2334 186.514Z" fill="white"/>
<path d="M251.368 97.5328L214.035 109.259C213.415 109.453 212.762 109.524 212.114 109.467C211.467 109.409 210.836 109.225 210.26 108.924C209.684 108.623 209.172 108.211 208.755 107.712C208.338 107.214 208.023 106.638 207.828 106.017L200.364 82.2536C199.986 81.05 200.082 79.7474 200.631 78.6119C201.181 77.4763 202.144 76.5934 203.322 76.1435L240.222 62.0433C240.941 61.8171 241.699 61.735 242.45 61.8016C243.201 61.8682 243.932 62.0822 244.601 62.4314C245.27 62.7805 245.863 63.2581 246.347 63.8367C246.831 64.4153 247.196 65.0836 247.422 65.8034L255.12 90.3288C255.577 91.7816 255.439 93.3566 254.735 94.7075C254.032 96.0583 252.821 97.0746 251.368 97.5328Z" fill="#22319E"/>
<path d="M234.156 88.7851L228.998 90.8798L222.43 85.7746L223.192 80.2642C223.232 79.9855 223.344 79.722 223.516 79.4996C223.689 79.2772 223.917 79.1036 224.177 78.996L236.057 74.1663C236.156 74.1261 236.264 74.1129 236.371 74.1279C236.477 74.1429 236.577 74.1856 236.662 74.2516C236.747 74.3177 236.812 74.4049 236.853 74.5044C236.893 74.604 236.906 74.7123 236.891 74.8186L235.137 87.5209C235.097 87.7985 234.985 88.0608 234.813 88.2824C234.642 88.504 234.415 88.6772 234.156 88.7851V88.7851Z" stroke="white" stroke-width="1.83242" stroke-miterlimit="10" stroke-linecap="round"/>
<path d="M229.031 90.9041L224.773 96.378C224.339 96.9331 223.415 96.9372 222.706 96.378L218.679 93.242C217.97 92.6909 217.747 91.7914 218.176 91.2363L222.431 85.7745L229.031 90.9041Z" stroke="white" stroke-width="1.83242" stroke-miterlimit="10" stroke-linecap="round"/>
<path d="M236.664 74.2513L230.505 82.1725" stroke="white" stroke-width="1.83242" stroke-miterlimit="10" stroke-linecap="round"/>
<path d="M229.128 86.2445C230.381 86.2445 231.397 85.2286 231.397 83.9755C231.397 82.7223 230.381 81.7065 229.128 81.7065C227.875 81.7065 226.859 82.7223 226.859 83.9755C226.859 85.2286 227.875 86.2445 229.128 86.2445Z" stroke="white" stroke-width="1.83242" stroke-miterlimit="10" stroke-linecap="round"/>
<path d="M171.07 247.367L144.037 274.668C142.463 276.257 140.354 277.205 138.121 277.327C135.887 277.449 133.688 276.737 131.95 275.329L113.369 260.276L112.085 258.032C106.239 245.859 101.775 233.07 98.7746 219.904C92.624 193.394 93.6288 173.094 93.6288 173.094L158.648 173.183C158.4 180.955 160.674 195.873 163.327 210.168C166.139 225.395 169.365 239.949 170.398 244.531L171.07 247.367Z" fill="#0D0F44"/>
<path d="M118.826 202.482L124.653 204.71C124.653 204.71 124.827 223.19 146.306 270.58" stroke="#DADEEB" stroke-width="0.916209" stroke-miterlimit="10" stroke-linecap="round"/>
<path d="M124.734 88.0881C124.734 88.0881 107.311 89.0767 100.828 101.706C92.8744 117.103 83.3244 115.231 69.99 99.3317C69.4977 98.7426 68.8136 98.3458 68.0578 98.211C67.302 98.0761 66.5229 98.2118 65.8572 98.5943C60.914 101.431 50.6428 108.574 55.4239 116.584C61.6231 126.965 80.3747 148.662 96.3468 147.422C96.3468 147.422 93.4822 165.501 93.6605 173.094C93.6605 173.094 103.486 185.509 127.955 184.974C152.423 184.439 158.679 173.183 158.679 173.183C158.679 173.183 158.947 154.606 159.753 149.784C159.753 149.784 175.855 161.822 199.545 157.515C199.545 157.515 196.385 146.604 203.135 139.566C203.135 139.566 179.728 133.103 177.147 129.513C174.566 125.924 167.451 105.928 166.041 102.938C164.198 99.0197 158.748 92.4518 148.27 89.2914C137.792 86.1311 124.734 88.0881 124.734 88.0881Z" fill="#FF2633"/>
<path d="M104.637 104.202C104.637 104.202 99.2566 119.664 96.5906 144.7" stroke="#DADEEB" stroke-width="0.916209" stroke-miterlimit="10" stroke-linecap="round"/>
<path d="M142.792 113.776C142.792 113.776 147.459 129.392 150.754 138.465C151.826 141.417 152.753 143.677 153.327 144.481C155.665 147.755 159.717 149.784 159.717 149.784" stroke="white" stroke-width="0.916209" stroke-miterlimit="10" stroke-linecap="round"/>
<path d="M198.772 138.314C198.772 138.314 191.823 141.92 194.818 156.369" stroke="white" stroke-width="0.916209" stroke-miterlimit="10" stroke-linecap="round"/>
<path d="M71.8262 101.475C71.8262 101.475 63.127 105.803 58.9172 113.776" stroke="white" stroke-width="0.916209" stroke-miterlimit="10" stroke-linecap="round"/>
<path d="M120.232 45.2163C120.232 45.2163 112.647 48.6603 118.012 60.9088L124.718 49.0776L120.232 45.2163Z" fill="#22319E"/>
<path d="M144.673 69.2879C144.673 69.2879 140.791 89.0038 140.791 90.6042C140.791 92.2047 130.135 94.733 124.147 89.7939C124.147 89.7939 128.604 76.9052 129.39 73.68C130.176 70.4548 139.102 66.8811 144.673 69.2879Z" fill="#F3ABAA"/>
<path d="M144.673 69.2879L128.368 77.1443C127.797 78.9433 127.092 81.0867 126.403 83.1126C126.403 83.1126 140.783 85.3856 144.673 69.2879Z" fill="#0D0F44"/>
<path d="M146.824 61.6017C146.824 70.0334 140.365 79.158 132.395 79.158C122.695 79.158 117.363 73.4086 117.963 61.6017C118.392 53.2267 124.425 46.3427 132.395 46.3427C140.365 46.3427 146.824 53.174 146.824 61.6017Z" fill="#F3ABAA"/>
<path d="M140.127 61.9217C131.541 62.7524 120.188 56.1115 120.233 45.2163C120.277 34.3211 130.265 33.9159 131.776 33.9159C133.287 33.9159 146.492 35.9094 150.54 49.11C154.588 62.3107 143.725 61.5733 140.127 61.9217Z" fill="#22319E"/>
<path d="M147.823 68.1604C150.87 66.4016 152.468 63.466 151.392 61.6037C150.317 59.7413 146.976 59.6574 143.929 61.4163C140.883 63.1751 139.285 66.1107 140.36 67.973C141.435 69.8354 144.777 69.9193 147.823 68.1604Z" fill="#F3ABAA"/>
<path d="M132.169 73.3274C132.169 73.3274 135.496 73.7529 136.853 70.8397" stroke="#0D0F44" stroke-width="0.916209" stroke-miterlimit="10" stroke-linecap="round"/>
<path d="M144.656 65.459L149.186 63.502" stroke="#0D0F44" stroke-width="0.916209" stroke-miterlimit="10" stroke-linecap="round"/>
<path d="M125.828 63.3682L124.892 67.3592C124.865 67.475 124.862 67.5951 124.883 67.712C124.905 67.829 124.95 67.9402 125.017 68.0388C125.084 68.1373 125.17 68.221 125.27 68.2846C125.371 68.3483 125.483 68.3905 125.601 68.4086L126.561 68.5625" stroke="#0D0F44" stroke-width="0.916209" stroke-miterlimit="10" stroke-linecap="round"/>
<path d="M123.201 61.5107C123.34 60.3553 122.969 59.3608 122.374 59.2894C121.778 59.218 121.183 60.0967 121.045 61.252C120.906 62.4074 121.276 63.4018 121.872 63.4733C122.467 63.5447 123.062 62.666 123.201 61.5107Z" fill="#0D0F44"/>
<path d="M131.543 62.9447C131.681 61.7894 131.311 60.7949 130.715 60.7235C130.12 60.6521 129.525 61.5308 129.386 62.6861C129.248 63.8414 129.618 64.8359 130.214 64.9073C130.809 64.9788 131.404 64.1001 131.543 62.9447Z" fill="#0D0F44"/>
<path d="M78.5274 13.2681C77.9438 10.4352 76.6286 7.80449 74.7127 5.63772C72.7967 3.47096 70.3467 1.84368 67.6065 0.917815C64.8663 -0.00805397 61.9314 -0.200238 59.0939 0.360385C56.2564 0.921009 53.6151 2.21489 51.4329 4.1133C49.2507 6.0117 47.6037 8.44844 46.6557 11.1811C45.7077 13.9137 45.4918 16.8469 46.0294 19.6889C46.5671 22.5308 47.8395 25.1825 49.7202 27.38C51.6009 29.5774 54.0243 31.2441 56.7491 32.2142C57.364 32.438 57.9109 32.8166 58.3367 33.3134C58.7626 33.8103 59.0531 34.4085 59.1802 35.0504L59.5854 36.9507C59.7659 37.8232 60.1165 38.6515 60.6172 39.3884C61.1179 40.1253 61.7588 40.7563 62.5034 41.2454C63.2481 41.7346 64.0817 42.0722 64.9569 42.2391C65.832 42.406 66.7315 42.3988 67.6038 42.218C68.4763 42.0375 69.3046 41.6869 70.0415 41.1862C70.7784 40.6855 71.4094 40.0446 71.8985 39.3C72.3877 38.5553 72.7253 37.7216 72.8922 36.8465C73.0591 35.9714 73.0519 35.0719 72.8711 34.1996L72.466 32.3155C72.3302 31.6797 72.3595 31.0197 72.551 30.3984C72.7425 29.7771 73.0898 29.2152 73.5599 28.7661C75.654 26.8305 77.212 24.3862 78.0824 21.6706C78.9528 18.955 79.1061 16.0604 78.5274 13.2681Z" fill="#FFD550"/>
<path d="M62.7004 33.2028L72.3842 31.2012" stroke="#FF2633" stroke-width="2.29052" stroke-miterlimit="10" stroke-linecap="round"/>
<path d="M64.042 3.479C64.042 3.479 70.8935 4.50816 72.8749 10.5291" stroke="white" stroke-width="1.83242" stroke-miterlimit="10" stroke-linecap="round"/>
<path d="M43.8607 5.99512C43.8607 5.99512 38.3503 12.2065 41.385 21.5701" stroke="#FF2633" stroke-width="2.29052" stroke-miterlimit="10" stroke-linecap="round"/>
<path d="M38.5886 1.75702C38.5886 1.75702 30.4851 10.9019 34.942 24.6901" stroke="#FF2633" stroke-width="2.29052" stroke-miterlimit="10" stroke-linecap="round"/>
</svg>
